<?xml version="1.0" encoding="UTF-8" standalone="no"?>
<!DOCTYPE svg PUBLIC "-//W3C//DTD SVG 1.1//EN" "http://www.w3.org/Graphics/SVG/1.1/DTD/svg11.dtd">
<svg width="100%" height="100%" viewBox="0 0 1000 1000" version="1.1" xmlns="http://www.w3.org/2000/svg" xmlns:xlink="http://www.w3.org/1999/xlink" xml:space="preserve" xmlns:serif="http://www.serif.com/" style="fill-rule:evenodd;clip-rule:evenodd;stroke-linejoin:round;stroke-miterlimit:2;">
    <g transform="matrix(11.4109,0,0,11.4109,23.6944,25.8067)">
        <path d="M82.66,82.31C66.22,81.92 50.14,82.77 34.39,80.88C7.64,77.67 -7.29,46.65 5.42,22.82C13.54,7.6 30.82,-1.25 47.6,1.21C64.94,3.75 78.82,16.87 82.3,34.01C82.43,34.66 82.64,35.32 82.64,35.97C82.66,51.08 82.66,66.2 82.66,82.3L82.66,82.31ZM65.26,66.39C65.26,55.8 66.12,46.11 65.04,36.63C63.73,25.09 52.77,16.74 41.44,17.03C29.51,17.33 19.72,26.38 18.26,38.46C16.79,50.63 23.88,62.55 35.54,64.64C45.21,66.37 55.28,65.89 65.25,66.39L65.26,66.39Z" style="fill-rule:nonzero;"/>
    </g>
</svg>
