<svg height='100px' width='100px'  fill="#40b883" xmlns="http://www.w3.org/2000/svg" xmlns:xlink="http://www.w3.org/1999/xlink" version="1.1" x="0px" y="0px" viewBox="0 0 100 100" style="enable-background:new 0 0 100 100;" xml:space="preserve"><g><path d="M28.456,42.263c-0.347,6.265,2.029,12.356,6.519,16.711c3.721,3.61,5.854,8.582,5.854,13.641v2.838   c0,2.733,2.223,4.956,4.956,4.956h8.429c2.733,0,4.956-2.223,4.956-4.956v-2.835c0-5.124,2.083-10.048,5.714-13.508   c4.316-4.113,6.693-9.66,6.693-15.62c0-11.898-9.68-21.578-21.578-21.578c-0.812,0-1.637,0.046-2.452,0.136   C37.24,23.186,29.032,31.877,28.456,42.263z M47.877,25.029c0.707-0.078,1.421-0.118,2.123-0.118   c10.244,0,18.578,8.334,18.578,18.578c0,5.131-2.046,9.907-5.763,13.448c-4.223,4.023-6.645,9.739-6.645,15.68v2.835   c0,1.079-0.877,1.956-1.956,1.956h-8.429c-1.079,0-1.956-0.877-1.956-1.956v-2.838c0-5.865-2.466-11.622-6.766-15.794   c-3.866-3.75-5.912-8.995-5.613-14.392C31.947,33.489,39.009,26.009,47.877,25.029z"></path><path d="M50,30.911c3.011,0,5.926,1.085,8.209,3.056c0.283,0.245,0.632,0.365,0.979,0.365c0.421,0,0.839-0.176,1.136-0.52   c0.542-0.627,0.472-1.574-0.155-2.115C57.342,29.255,53.73,27.911,50,27.911c-0.829,0-1.5,0.671-1.5,1.5S49.171,30.911,50,30.911z"></path><path d="M62.578,43.489c0,0.829,0.671,1.5,1.5,1.5s1.5-0.671,1.5-1.5c0-1.926-0.349-3.808-1.038-5.593   c-0.298-0.772-1.165-1.157-1.939-0.859c-0.773,0.298-1.158,1.167-0.859,1.939C62.296,40.416,62.578,41.934,62.578,43.489z"></path><path d="M42.74,85.474h14.52c0.829,0,1.5-0.671,1.5-1.5s-0.671-1.5-1.5-1.5H42.74c-0.829,0-1.5,0.671-1.5,1.5   S41.912,85.474,42.74,85.474z"></path><path d="M42.74,90.237h14.52c0.829,0,1.5-0.671,1.5-1.5s-0.671-1.5-1.5-1.5H42.74c-0.829,0-1.5,0.671-1.5,1.5   S41.912,90.237,42.74,90.237z"></path><path d="M55.13,93.5c0-0.829-0.671-1.5-1.5-1.5h-7.26c-0.829,0-1.5,0.671-1.5,1.5s0.671,1.5,1.5,1.5h7.26   C54.458,95,55.13,94.329,55.13,93.5z"></path><path d="M13.056,41.944c0,0.829,0.671,1.5,1.5,1.5h8.686c0.829,0,1.5-0.671,1.5-1.5s-0.671-1.5-1.5-1.5h-8.686   C13.727,40.444,13.056,41.116,13.056,41.944z"></path><path d="M85.444,40.444h-8.686c-0.829,0-1.5,0.671-1.5,1.5s0.671,1.5,1.5,1.5h8.686c0.829,0,1.5-0.671,1.5-1.5   S86.273,40.444,85.444,40.444z"></path><path d="M48.5,6.5v8.686c0,0.829,0.671,1.5,1.5,1.5s1.5-0.671,1.5-1.5V6.5C51.5,5.671,50.829,5,50,5S48.5,5.671,48.5,6.5z"></path><path d="M67.86,24.084c0.293,0.293,0.677,0.439,1.061,0.439s0.768-0.146,1.061-0.439l6.142-6.142c0.586-0.585,0.586-1.536,0-2.121   c-0.586-0.586-1.535-0.586-2.121,0l-6.142,6.142C67.274,22.548,67.274,23.499,67.86,24.084z"></path><path d="M30.019,59.805l-6.142,6.142c-0.586,0.585-0.586,1.535,0,2.121c0.293,0.293,0.677,0.439,1.061,0.439   s0.768-0.146,1.061-0.439l6.142-6.142c0.586-0.585,0.586-1.535,0-2.121S30.604,59.219,30.019,59.805z"></path><path d="M25.998,15.821c-0.586-0.586-1.535-0.586-2.121,0c-0.586,0.585-0.586,1.536,0,2.121l6.142,6.142   c0.293,0.293,0.677,0.439,1.061,0.439s0.768-0.146,1.061-0.439c0.586-0.585,0.586-1.536,0-2.121L25.998,15.821z"></path><path d="M69.981,59.805c-0.586-0.586-1.535-0.586-2.121,0s-0.586,1.536,0,2.121l6.142,6.142c0.293,0.293,0.677,0.439,1.061,0.439   s0.768-0.146,1.061-0.439c0.586-0.586,0.586-1.536,0-2.121L69.981,59.805z"></path></g></svg>
