<?xml version="1.0" encoding="UTF-8"?>
<svg id="b" data-name="Layer 1" xmlns="http://www.w3.org/2000/svg" viewBox="0 0 535.37 83.47">
  <path d="M451,40.65c-.14,17.63-9.85,32.23-25.39,38.39-15.74,6.24-33.2,2.32-45.41-10.22-.69-.7-1.18-1.6-2.01-2.74-1.77,1.68-3.05,2.89-4.33,4.1-21.89,20.87-58.05,12.58-67.46-15.6-1.35-4.05-2.07-8.47-2.17-12.74-.29-12.66-.12-25.34-.11-38.01,0-.8,0,0,0-2.38,8.63-.49,16.36,6.16,16.82,15.24,.38,7.65,.15,15.33,.19,23,.03,6.7,1.53,12.91,6.25,17.96,7.03,7.51,15.46,10.05,25.4,6.89,8.61-2.73,15.62-11.15,15.97-20.42,.46-12.15,.24-24.33,.3-36.5,.01-1.97,.01-3.95,.01-5.86,8.22-1.36,16.19,5.62,16.83,14.66,.36,5.14,.09,10.33,.18,15.49,.08,4.33-.06,8.69,.46,12.97,1.47,12.15,12.04,21.26,24.05,21.03,12.22-.24,22.54-10,23.2-22.46,.44-8.31,.07-16.66,.28-24.99,.22-8.67,5.49-15.17,13.37-17.14,.93-.23,2.22-.21,3.57-.26,0,4.51,.01,3.13,.01,4.58,.02,11.67,.09,23.34-.01,35.01Z"/>
  <path d="M82.66,82.31c-16.44-.39-32.52,.46-48.27-1.43C7.64,77.67-7.29,46.65,5.42,22.82,13.54,7.6,30.82-1.25,47.6,1.21c17.34,2.54,31.22,15.66,34.7,32.8,.13,.65,.34,1.31,.34,1.96,.02,15.11,.02,30.23,.02,46.33Zm-17.4-15.92c0-10.59,.86-20.28-.22-29.76-1.31-11.54-12.27-19.89-23.6-19.6-11.93,.3-21.72,9.35-23.18,21.43-1.47,12.17,5.62,24.09,17.28,26.18,9.67,1.73,19.74,1.25,29.71,1.75Z"/>
  <path d="M215.42,41.42c.06-22.65,18.33-40.54,41.32-40.45,22.46,.1,40.61,18.39,40.47,40.79-.13,22.39-18.37,40.23-41.06,40.17-22.64-.06-40.78-18.11-40.73-40.5Zm17.08-.61c-.42,13.43,10,24.72,23.16,25.1,13.11,.37,24.17-10.34,24.54-23.77,.37-13.44-9.93-24.57-23.21-25.1-13.02-.51-24.07,10.2-24.49,23.77Z"/>
  <path d="M226.47,.95c-.2,8.84-6.03,15.18-14.18,15.88-2.82,.24-5.66,.06-8.5,.14-14.51,.41-24.4,10.08-24.85,24.61-.25,8,.11,16.01-.17,24-.32,9.29-7.2,15.81-16.66,15.94-.07-1.46-.21-2.93-.22-4.39-.02-11.5-.07-23.01,0-34.51,.17-24.15,17.6-41.52,41.76-41.66,7.48-.04,14.96,0,22.8,0Z"/>
  <path d="M93.16,81.58c-.16-.44-.46-.9-.46-1.36,.02-14.49-.52-29.01,.28-43.46,1-18.14,17.57-34.24,36.12-35.56,9.23-.66,18.55-.11,27.83-.11-.05,8.85-5.94,15.17-14.41,15.78-2.82,.2-5.66,.02-8.49,.12-14.33,.51-24.01,10.15-24.34,24.42-.18,7.66,.12,15.33-.11,22.99-.3,10.08-6.75,16.7-16.41,17.18Z"/>
  <path d="M501.11,31.13h6.35c3.98,6.69,8.72,8.73,15.5,6.73,2.49-.74,4.12-2.23,4.3-4.89,.18-2.61-.97-4.66-3.49-5.44-3.64-1.13-7.54-1.56-11.03-3.01-3.11-1.29-6.51-3-8.55-5.52-3.71-4.59-1.71-12,3.36-15.3,5.71-3.72,15.33-3.63,20.89,.26,3.3,2.31,5.43,5.3,5.25,9.9h-6.6c-1.37-6.24-6.4-6.69-11.9-6.03-2.65,.32-4.88,1.44-5.25,4.44-.38,3.06,1.57,4.62,4.14,5.43,2.37,.74,4.87,1.1,7.26,1.79,2.39,.68,4.83,1.34,7.05,2.41,4.5,2.18,6.61,6,6.37,10.96-.23,4.72-2.47,8.23-6.91,10.13-5.94,2.54-12.04,2.65-18.03,.47-5.33-1.94-8.2-6-8.7-12.34Z"/>
  <path d="M467.9,32.2h5.93c1.1,1.61,1.93,3.81,3.52,4.94,4.16,2.96,9.39,.24,9.6-5.07,.31-7.81,.14-15.64,.17-23.47,0-2.13,0-4.25,0-6.71h7.3c0,6.52,.06,12.81-.02,19.1-.06,4.65,.14,9.37-.56,13.94-1.07,6.98-7.06,10.65-14.98,9.84-6.88-.7-10.82-5.13-10.95-12.58Z"/>
</svg>
